<?xml version="1.0" encoding="UTF-8" standalone="no"?>
<!-- Created with Inkscape (http://www.inkscape.org/) -->

<svg
   xmlns:dc="http://purl.org/dc/elements/1.1/"
   xmlns:cc="http://creativecommons.org/ns#"
   xmlns:rdf="http://www.w3.org/1999/02/22-rdf-syntax-ns#"
   xmlns:svg="http://www.w3.org/2000/svg"
   xmlns="http://www.w3.org/2000/svg"
   xmlns:sodipodi="http://sodipodi.sourceforge.net/DTD/sodipodi-0.dtd"
   xmlns:inkscape="http://www.inkscape.org/namespaces/inkscape"
   width="263.66501"
   height="207.882"
   id="svg3678"
   version="1.1"
   inkscape:version="0.48.4 r9939"
   sodipodi:docname="Novo documento 9">
  <defs
     id="defs3680" />
  <sodipodi:namedview
     id="base"
     pagecolor="#ffffff"
     bordercolor="#666666"
     borderopacity="1.0"
     inkscape:pageopacity="0.0"
     inkscape:pageshadow="2"
     inkscape:zoom="0.35"
     inkscape:cx="346.52214"
     inkscape:cy="-613.54658"
     inkscape:document-units="px"
     inkscape:current-layer="layer1"
     showgrid="false"
     fit-margin-left="10"
     fit-margin-top="10"
     fit-margin-right="10"
     fit-margin-bottom="10"
     inkscape:window-width="1535"
     inkscape:window-height="876"
     inkscape:window-x="65"
     inkscape:window-y="24"
     inkscape:window-maximized="1" />
  <metadata
     id="metadata3683">
    <rdf:RDF>
      <cc:Work
         rdf:about="">
        <dc:format>image/svg+xml</dc:format>
        <dc:type
           rdf:resource="http://purl.org/dc/dcmitype/StillImage" />
        <dc:title></dc:title>
      </cc:Work>
    </rdf:RDF>
  </metadata>
  <g
     inkscape:label="Camada 1"
     inkscape:groupmode="layer"
     id="layer1"
     transform="translate(3.26107,3.0073874)">
    <g
       transform="translate(-291.77107,-73.056391)"
       id="g9">
      <circle
         sodipodi:ry="15.834"
         sodipodi:rx="15.834"
         sodipodi:cy="95.883003"
         sodipodi:cx="466.08099"
         d="m 481.91499,95.883003 c 0,8.744877 -7.08912,15.833997 -15.834,15.833997 -8.74487,0 -15.834,-7.08912 -15.834,-15.833997 0,-8.744876 7.08913,-15.833999 15.834,-15.833999 8.74488,0 15.834,7.089123 15.834,15.833999 z"
         cx="466.08099"
         cy="95.883003"
         r="15.834"
         id="circle11" />
      <path
         inkscape:connector-curvature="0"
         d="m 496.509,176.586 c -5.686,0 -11.128,1.053 -16.152,2.96 -5.408,-12.221 -10.203,-23.245 -12.476,-28.918 7.183,-0.11 14.391,-1.53 19.417,-2.79 -0.725,0.766 -1.463,1.506 -2.187,2.186 -1.245,1.17 -1.308,3.127 -0.139,4.373 1.169,1.246 3.124,1.309 4.371,0.141 2.44,-2.289 10.407,-10.193 10.407,-15.811 0,-5.94 -4.604,-13.078 -12.04,-14.252 -3.511,-0.555 -18.804,-1.86 -23.973,2.447 -1.944,1.62 -3.191,4.07 -3.865,6.908 -0.512,-0.197 -0.895,-0.431 -1.119,-0.701 -9.902,-17.825 -10.223,-28.485 -10.225,-28.592 v 0.102 l -0.138,-10e-4 -0.037,-0.61 c -1.502,-6.341 -8.081,-10.074 -16.859,-6.907 l -48.297,19.978 c -6.045,1.947 -10.379,6.307 -11.532,10.945 -1.045,2.403 -1.22,5.158 -0.38,7.76 -1.835,0.345 -3.295,0.852 -4.124,1.598 -2.946,2.651 -1.235,12.416 8.25,13.847 0.99,0.149 1.928,0.155 2.824,0.054 1.77,4.343 3.641,9.385 5.226,14.636 l -13.899,18.374 c -7.265,-4.875 -15.996,-7.725 -25.383,-7.725 -25.182,0 -45.669,20.488 -45.669,45.67 0,25.182 20.487,45.67 45.669,45.67 20.09,0 37.18,-13.046 43.274,-31.105 0.7,5.215 5.063,9.325 10.498,9.52 0.134,0.005 0.267,0.007 0.399,0.007 5.894,0 10.774,-4.67 10.986,-10.607 0.01,-0.264 0.055,-1.555 0.114,-3.568 l 11.39,1.138 c 0.341,0.048 0.686,0.082 1.035,0.104 l 0.242,0.024 c 0.045,0.005 0.088,0.007 0.133,0.007 0.019,0 0.034,-0.009 0.053,-0.01 0.133,0.004 0.263,0.02 0.396,0.02 7.229,0 13.112,-5.75 13.112,-12.817 0,-4.479 -2.367,-8.423 -5.938,-10.716 0.854,-2.804 1.913,-5.438 3.131,-7.916 0.011,0.157 0.021,0.305 0.033,0.464 0.415,5.792 5.243,10.213 10.96,10.213 0.265,0 0.531,-0.009 0.799,-0.028 3.598,-0.258 6.655,-2.226 8.464,-5.043 -1.563,4.601 -2.423,9.523 -2.423,14.646 0,25.182 20.487,45.67 45.669,45.67 25.182,0 45.669,-20.488 45.669,-45.67 0,-25.182 -20.484,-45.675 -45.666,-45.675 z m -43.9,-4.957 c -0.255,-3.044 -0.534,-6.538 -0.878,-11.178 -0.074,-1.001 -0.212,-1.987 -0.398,-2.962 l 12.339,-0.054 c 0.108,0 0.211,-0.021 0.316,-0.033 0.842,2.005 1.811,4.275 2.868,6.729 -2.647,1.052 -8.045,3.436 -14.247,7.498 z m 34.137,-41.043 c 0.564,0.089 1.105,0.261 1.623,0.486 -0.457,0.051 -0.916,0.135 -1.372,0.269 -7.608,2.239 -15.408,3.275 -20.918,3.264 0.394,-1.344 0.95,-2.37 1.622,-2.931 2.128,-1.773 12.533,-2.116 19.045,-1.088 z m -25.625,19.699 c 0.109,0.296 0.229,0.617 0.366,0.973 l -12.181,0.053 c -3.052,-6.457 -8.898,-12.238 -17.495,-17.306 l 8.265,-2.365 c 1.32,2.889 2.869,5.978 4.692,9.259 3.266,5.879 9.447,8.514 16.353,9.386 z m -78.394,63.452 -31.157,4.612 19.145,-25.307 c 5.939,5.4 10.221,12.586 12.012,20.695 z m -33.439,7.629 33.931,-5.022 c 0.291,1.929 0.444,3.903 0.444,5.912 0,1.572 -0.103,3.121 -0.282,4.646 l -35.591,-3.556 1.498,-1.98 z m 60.539,-8.961 3.291,-0.487 c -1.76,1.848 -2.964,4.197 -3.365,6.807 0.031,-2.021 0.056,-4.14 0.074,-6.32 z m 0.016,-2.681 c 0.032,-7.271 -0.045,-14.947 -0.351,-21.456 l 8.84,20.199 -8.489,1.257 z m -10.518,-64.951 c 0.594,-0.01 1.153,-0.029 1.677,-0.061 6.229,1.98 12.085,4.301 16.876,6.734 l -16.018,0.069 c -0.838,-2.357 -1.693,-4.614 -2.535,-6.742 z m -13.839,28.744 c 0.718,3.138 1.274,6.265 1.582,9.281 0.655,6.418 0.815,16.489 0.778,26.079 -2.492,-8.117 -7.192,-15.272 -13.394,-20.775 l 11.034,-14.585 z m -41.306,88.221 c -21.771,0 -39.481,-17.711 -39.481,-39.482 0,-21.771 17.711,-39.482 39.481,-39.482 7.986,0 15.421,2.391 21.641,6.483 l -23.664,31.28 c -1.031,1.363 -0.763,3.303 0.6,4.334 0.122,0.093 0.251,0.17 0.382,0.242 0.216,0.283 0.531,0.486 0.91,0.523 l 38.932,3.89 c -3.424,18.309 -19.514,32.212 -38.801,32.212 z m 65.346,-32.223 c 0.056,-2.077 0.114,-4.564 0.168,-7.345 0.373,3.043 1.841,5.756 4.008,7.762 l -4.176,-0.417 z m 13.176,-0.482 c -4.793,0 -8.691,-3.768 -8.691,-8.397 0,-4.629 3.898,-8.397 8.691,-8.397 4.794,0 8.692,3.768 8.692,8.397 0,4.629 -3.898,8.397 -8.692,8.397 z m 1.332,-21.148 c -0.056,-0.006 -0.114,-0.004 -0.17,-0.009 L 407.17,169.731 c -0.896,-4.085 -2.011,-8.142 -3.236,-12.036 l 23.233,-0.101 c 1.581,1.542 2.52,3.055 2.625,4.481 0.621,8.387 1.052,13.308 1.47,18.066 0.284,3.241 0.574,6.557 0.93,11.025 -3.339,4.825 -6.196,10.37 -8.158,16.719 z m 30.95,-6.991 c -0.784,-10.941 -1.282,-16.686 -1.754,-22.075 7.072,-5.104 13.498,-7.953 16.094,-8.998 1.699,3.894 3.535,8.065 5.409,12.301 -8.77,4.777 -15.798,12.353 -19.906,21.511 0.159,-0.887 0.224,-1.801 0.157,-2.739 z m 41.525,60.844 c -21.771,0 -39.481,-17.711 -39.481,-39.482 0,-14.781 8.17,-27.685 20.227,-34.45 7.616,17.136 15.091,33.645 15.7,34.991 0.517,1.143 1.644,1.817 2.82,1.817 0.426,0 0.86,-0.089 1.274,-0.276 1.556,-0.705 2.246,-2.539 1.541,-4.095 -4.247,-9.378 -10.142,-22.479 -15.724,-35.038 4.254,-1.571 8.85,-2.432 13.643,-2.432 21.771,0 39.481,17.712 39.481,39.482 10e-4,21.772 -17.71,39.483 -39.481,39.483 z"
         id="path13" />
    </g>
  </g>
</svg>
