<?xml version="1.0" encoding="UTF-8" standalone="no"?>
<!-- Created with Inkscape (http://www.inkscape.org/) -->

<svg
   xmlns:dc="http://purl.org/dc/elements/1.1/"
   xmlns:cc="http://creativecommons.org/ns#"
   xmlns:rdf="http://www.w3.org/1999/02/22-rdf-syntax-ns#"
   xmlns:svg="http://www.w3.org/2000/svg"
   xmlns="http://www.w3.org/2000/svg"
   xmlns:sodipodi="http://sodipodi.sourceforge.net/DTD/sodipodi-0.dtd"
   xmlns:inkscape="http://www.inkscape.org/namespaces/inkscape"
   width="323.33228"
   height="249.89803"
   id="svg3261"
   version="1.1"
   inkscape:version="0.48.4 r9939"
   sodipodi:docname="kite_novo.svg">
  <defs
     id="defs3263" />
  <sodipodi:namedview
     id="base"
     pagecolor="#ffffff"
     bordercolor="#666666"
     borderopacity="1.0"
     inkscape:pageopacity="0"
     inkscape:pageshadow="2"
     inkscape:zoom="0.7"
     inkscape:cx="392.64893"
     inkscape:cy="-108.37195"
     inkscape:document-units="px"
     inkscape:current-layer="layer1"
     showgrid="false"
     inkscape:snap-grids="false"
     inkscape:snap-bbox="true"
     inkscape:window-width="1535"
     inkscape:window-height="876"
     inkscape:window-x="65"
     inkscape:window-y="24"
     inkscape:window-maximized="1"
     inkscape:bbox-nodes="true"
     inkscape:snap-to-guides="false"
     inkscape:snap-page="true"
     objecttolerance="20"
     fit-margin-top="0"
     fit-margin-left="0"
     fit-margin-right="0"
     fit-margin-bottom="0" />
  <metadata
     id="metadata3266">
    <rdf:RDF>
      <cc:Work
         rdf:about="">
        <dc:format>image/svg+xml</dc:format>
        <dc:type
           rdf:resource="http://purl.org/dc/dcmitype/StillImage" />
        <dc:title></dc:title>
      </cc:Work>
    </rdf:RDF>
  </metadata>
  <g
     inkscape:label="Camada 1"
     inkscape:groupmode="layer"
     id="layer1"
     transform="translate(1.6661482,-0.27031112)">
    <g
       id="g3280"
       transform="translate(-832.48311,-38.07967)">
      <path
         id="path3282"
         d="m 1153.563,255.433 c -0.168,-0.169 -0.359,-0.372 -0.577,-0.603 -2.581,-2.734 -8.624,-9.138 -23.054,-10.994 -14.687,-1.889 -34.015,1.444 -57.552,9.89 -14.438,-29.353 -40.551,-52.805 -76.407,-68.379 -2.729,-1.186 -5.427,-2.284 -8.081,-3.312 0.515,-2.188 0.927,-4.513 1.432,-7.479 0.342,-2 0.746,-4.374 1.303,-7.35 1.974,-10.521 -2.836,-16.703 -5.879,-19.451 -6.408,-5.789 -16.738,-7.642 -31.58,-5.665 -0.488,0.065 -0.971,0.135 -1.451,0.206 l 3.044,-31.71 c 6.32,0.301 14.902,1.308 23.525,4.183 11.022,3.674 27.337,4.061 28.026,4.076 0.059,0.001 0.115,0.002 0.174,0.002 1.093,0 2.137,-0.222 3.088,-0.621 l 23.104,22.621 c 0.584,0.572 1.341,0.856 2.099,0.856 0.778,0 1.556,-0.301 2.144,-0.901 1.159,-1.184 1.139,-3.083 -0.045,-4.242 l -5.875,-5.752 44.051,-63.774 c 0.471,-0.682 0.3,-1.616 -0.382,-2.087 -0.681,-0.47 -1.616,-0.299 -2.087,0.382 l -43.758,63.35 -12.356,-12.099 44.583,-64.545 c 0.471,-0.682 0.3,-1.616 -0.382,-2.087 -0.681,-0.47 -1.616,-0.3 -2.087,0.382 l -44.29,64.121 -0.458,-0.45 c 0.393,-0.917 0.624,-1.922 0.646,-2.981 0.094,-4.417 -3.41,-8.075 -7.828,-8.168 -1.023,-0.022 -2.572,-0.088 -4.424,-0.213 l -0.175,-0.17 42.663,-61.766 c 0.471,-0.682 0.3,-1.616 -0.382,-2.087 -0.681,-0.471 -1.616,-0.3 -2.087,0.382 l -42.369,61.341 -4.926,-4.822 c -1.184,-1.16 -3.084,-1.139 -4.242,0.044 -1.159,1.184 -1.139,3.083 0.045,4.243 l 1.865,1.827 c -3.313,-0.488 -6.614,-1.149 -9.275,-2.037 -18.066,-6.023 -35.447,-5.205 -39.291,-4.93 -1.096,-0.303 -2.233,-0.481 -3.412,-0.481 h -20.652 c -1.126,0 -2.217,0.162 -3.267,0.439 -1.159,-0.183 -2.374,-0.123 -3.573,0.242 -0.711,0.217 -17.617,5.449 -33.086,17.282 -13.184,10.085 -25.024,11.98 -25.095,11.991 -4.377,0.611 -7.428,4.655 -6.816,9.03 0.56,4 3.986,6.894 7.913,6.894 0.369,0 0.742,-0.025 1.117,-0.078 0.641,-0.089 15.885,-2.34 32.602,-15.129 5.618,-4.297 11.546,-7.6 16.498,-9.976 l 4.533,47.228 c 0,5.546 2.56,10.419 6.428,13.245 l -5.813,2.125 c -1.493,0.545 -2.301,2.16 -1.843,3.682 6.035,20.066 14.781,37.482 26.154,52.175 -2.398,-1.597 -4.764,-3.186 -7.086,-4.748 -12.486,-8.402 -23.271,-15.66 -33.098,-19.591 -37.348,-14.939 -63.769,6.773 -64.03,6.994 -0.845,0.711 -0.953,1.971 -0.243,2.815 0.71,0.846 1.972,0.956 2.817,0.246 0.245,-0.205 24.919,-20.359 59.971,-6.342 9.431,3.773 20.052,10.92 32.351,19.196 5.934,3.993 12.143,8.167 18.635,12.237 11.557,12.062 25.262,21.862 41.079,29.322 29.095,13.72 55.916,14.786 63.444,14.786 1.131,0 1.735,-0.025 1.735,-0.025 0.523,-0.021 1.035,-0.18 1.479,-0.459 l 24.558,-15.481 c 1.171,-0.738 1.686,-2.183 1.244,-3.494 -1.313,-3.901 -2.823,-7.71 -4.506,-11.434 37.567,-13.474 63.106,-13.423 75.985,0.224 0.248,0.264 0.466,0.494 0.658,0.686 0.781,0.781 2.047,0.781 2.828,0 0.781,-0.781 0.78,-2.051 -10e-4,-2.832 z M 968.896,163.727 c -0.529,2.854 -0.924,5.166 -1.26,7.134 -0.281,1.65 -0.512,3 -0.746,4.201 -1.923,-0.538 -3.791,-1.037 -5.584,-1.491 -0.578,-0.378 -1.165,-0.751 -1.764,-1.116 -3.66,-2.23 -7.094,-4.27 -10.257,-6.11 0.112,-0.452 0.21,-0.91 0.286,-1.377 7.99,-1.604 15.782,-2.144 19.325,-1.241 z m 81.403,118.515 c -0.202,0.003 -0.441,0.004 -0.718,0.004 -7.213,0 -32.919,-1.024 -60.885,-14.213 -35.334,-16.662 -59.725,-45.558 -72.529,-85.904 l 9.904,-3.619 c 5.314,2.898 12.993,7.227 22.016,12.729 10.406,6.346 17.134,15.688 25.021,49.134 1.195,5.063 5.711,8.478 10.697,8.478 0.836,0 1.686,-0.097 2.534,-0.297 5.913,-1.395 9.575,-7.318 8.181,-13.231 -3.841,-16.287 -7.739,-28.449 -12.46,-37.89 1.892,-4.049 3.172,-7.026 4.112,-9.625 2.491,0.969 5.018,2.004 7.567,3.113 27.493,11.969 63.17,35.096 78.396,77.556 l -21.836,13.765 z"
         inkscape:connector-curvature="0" />
      <circle
         id="circle3284"
         r="15.834"
         cy="75.68"
         cx="930.64697"
         d="m 946.48097,75.68 c 0,8.744877 -7.08912,15.834 -15.834,15.834 -8.74487,0 -15.834,-7.089123 -15.834,-15.834 0,-8.744876 7.08913,-15.833999 15.834,-15.833999 8.74488,0 15.834,7.089123 15.834,15.833999 z"
         sodipodi:cx="930.64697"
         sodipodi:cy="75.68"
         sodipodi:rx="15.834"
         sodipodi:ry="15.834" />
    </g>
  </g>
</svg>
