<?xml version="1.0" encoding="UTF-8" standalone="no"?>
<!-- Created with Inkscape (http://www.inkscape.org/) -->

<svg
   xmlns:dc="http://purl.org/dc/elements/1.1/"
   xmlns:cc="http://creativecommons.org/ns#"
   xmlns:rdf="http://www.w3.org/1999/02/22-rdf-syntax-ns#"
   xmlns:svg="http://www.w3.org/2000/svg"
   xmlns="http://www.w3.org/2000/svg"
   xmlns:sodipodi="http://sodipodi.sourceforge.net/DTD/sodipodi-0.dtd"
   xmlns:inkscape="http://www.inkscape.org/namespaces/inkscape"
   width="167.55037"
   height="236.45799"
   id="svg3805"
   version="1.1"
   inkscape:version="0.48.4 r9939"
   sodipodi:docname="Novo documento 15">
  <defs
     id="defs3807" />
  <sodipodi:namedview
     id="base"
     pagecolor="#ffffff"
     bordercolor="#666666"
     borderopacity="1.0"
     inkscape:pageopacity="0.0"
     inkscape:pageshadow="2"
     inkscape:zoom="0.35"
     inkscape:cx="90.918047"
     inkscape:cy="-247.48528"
     inkscape:document-units="px"
     inkscape:current-layer="layer1"
     showgrid="false"
     fit-margin-top="15"
     fit-margin-left="15"
     fit-margin-right="15"
     fit-margin-bottom="15"
     inkscape:window-width="1535"
     inkscape:window-height="876"
     inkscape:window-x="65"
     inkscape:window-y="24"
     inkscape:window-maximized="1" />
  <metadata
     id="metadata3810">
    <rdf:RDF>
      <cc:Work
         rdf:about="">
        <dc:format>image/svg+xml</dc:format>
        <dc:type
           rdf:resource="http://purl.org/dc/dcmitype/StillImage" />
        <dc:title></dc:title>
      </cc:Work>
    </rdf:RDF>
  </metadata>
  <g
     inkscape:label="Camada 1"
     inkscape:groupmode="layer"
     id="layer1"
     transform="translate(-259.08195,-48.418907)">
    <g
       transform="translate(-210.58907,-264.0411)"
       id="g71">
      <circle
         cx="567.29199"
         cy="343.29401"
         r="15.834"
         id="circle73"
         d="m 583.12599,343.29401 c 0,8.74487 -7.08912,15.834 -15.834,15.834 -8.74487,0 -15.834,-7.08913 -15.834,-15.834 0,-8.74488 7.08913,-15.834 15.834,-15.834 8.74488,0 15.834,7.08912 15.834,15.834 z"
         sodipodi:cx="567.29199"
         sodipodi:cy="343.29401"
         sodipodi:rx="15.834"
         sodipodi:ry="15.834" />
      <path
         d="m 621.133,382.024 c -1.154,-1.983 -3.033,-3.277 -5.105,-3.759 l 1.619,-14.976 c 0.178,-1.647 -1.014,-3.127 -2.66,-3.305 -1.637,-0.18 -3.127,1.012 -3.305,2.66 l -1.803,16.673 c -11.289,6.521 -25,11.406 -28.703,10.217 -7.305,-6.823 -13.667,-13.261 -18.488,-18.313 -4.764,-7.183 -11.575,-12.365 -11.575,-12.365 -5.827,-2.918 -12.913,-0.271 -16.119,8.493 l -15.687,49.856 c -0.808,1.99 -1.275,4.008 -1.438,5.958 -0.138,0.453 -0.246,0.91 -0.324,1.372 -0.814,1.392 -1.346,2.977 -1.48,4.692 -0.021,0.255 -2.037,25.76 -4.319,45.328 -0.714,6.119 -12.675,20.487 -23.394,30.063 -4.535,4.042 -4.935,10.995 -0.892,15.53 2.173,2.438 5.188,3.681 8.215,3.681 2.604,0 5.219,-0.919 7.315,-2.789 4.749,-4.232 28.543,-26.245 30.606,-43.937 1.127,-9.66 2.188,-20.703 2.985,-29.568 11.279,10.563 21.658,23.117 22.141,31.446 0.563,9.712 0.746,15.844 0.908,21.255 0.207,6.933 0.386,12.921 1.272,23.592 0.477,5.744 5.287,10.09 10.949,10.09 0.306,0 0.613,-0.013 0.923,-0.039 6.055,-0.503 10.555,-5.818 10.052,-11.873 -0.838,-10.089 -1,-15.533 -1.206,-22.427 -0.166,-5.555 -0.354,-11.852 -0.936,-21.871 -0.714,-12.308 -8.68,-25.913 -24.353,-41.596 -2.396,-2.396 -4.775,-4.64 -7.033,-6.683 0.54,-0.902 1.024,-1.867 1.438,-2.889 l 12.969,-31.557 c 2.153,2.093 4.419,4.256 6.789,6.467 2.969,2.77 6.91,4.153 11.897,4.153 5.132,0 11.371,-1.467 18.788,-4.4 2.334,-0.923 4.58,-1.91 6.643,-2.87 l -14.127,130.704 c -0.179,1.647 1.013,3.127 2.661,3.305 0.109,0.012 0.217,0.018 0.326,0.018 1.512,0 2.813,-1.14 2.979,-2.678 l 14.537,-134.506 c 2.389,-1.255 3.908,-2.135 4.047,-2.216 3.819,-2.221 5.112,-7.118 2.888,-10.936 z"
         id="path75"
         inkscape:connector-curvature="0" />
      <path
         d="m 500.428,408.312 2.219,0.722 c 7.877,2.563 16.342,-1.746 18.904,-9.624 l 11.652,-35.818 c 2.563,-7.878 -1.746,-16.341 -9.624,-18.904 l -2.219,-0.722 c -7.877,-2.563 -16.342,1.746 -18.904,9.624 l -11.652,35.818 c -2.563,7.877 1.746,16.34 9.624,18.904 z"
         id="path77"
         inkscape:connector-curvature="0" />
    </g>
  </g>
</svg>
